<?xml version="1.0" ?><svg style="enable-background:new 0 0 24 24;" version="1.1" viewBox="0 0 24 24" xml:space="preserve" xmlns="http://www.w3.org/2000/svg" xmlns:xlink="http://www.w3.org/1999/xlink"><style type="text/css">
	.st0{display:none;}
	.st1{display:inline;}
	.st2{opacity:0.2;fill:none;stroke:#000000;stroke-width:5.000000e-02;stroke-miterlimit:10;}
</style><g class="st0" id="grid_system"/><g id="_icons"><g><path d="M12,6h8c0.6,0,1-0.4,1-1s-0.4-1-1-1h-8c-0.6,0-1,0.4-1,1S11.4,6,12,6z"/><path d="M20,11h-8c-0.6,0-1,0.4-1,1s0.4,1,1,1h8c0.6,0,1-0.4,1-1S20.6,11,20,11z"/><path d="M20,18h-8c-0.6,0-1,0.4-1,1s0.4,1,1,1h8c0.6,0,1-0.4,1-1S20.6,18,20,18z"/><path d="M7.2,3.2L5.5,5.7L5,5.2c-0.4-0.4-1-0.4-1.4,0s-0.4,1,0,1.4L4.9,8c0.2,0.2,0.4,0.3,0.7,0.3c0,0,0.1,0,0.1,0    c0.3,0,0.6-0.2,0.7-0.4l2.4-3.6C9.1,3.8,9,3.2,8.6,2.9C8.1,2.6,7.5,2.7,7.2,3.2z"/><path d="M7.2,10.2l-1.7,2.5L5,12.2c-0.4-0.4-1-0.4-1.4,0s-0.4,1,0,1.4L4.9,15c0.2,0.2,0.4,0.3,0.7,0.3c0,0,0.1,0,0.1,0    c0.3,0,0.6-0.2,0.7-0.4l2.4-3.6c0.3-0.5,0.2-1.1-0.3-1.4C8.1,9.6,7.5,9.7,7.2,10.2z"/><path d="M7.2,17.2l-1.7,2.5L5,19.2c-0.4-0.4-1-0.4-1.4,0s-0.4,1,0,1.4L4.9,22c0.2,0.2,0.4,0.3,0.7,0.3c0,0,0.1,0,0.1,0    c0.3,0,0.6-0.2,0.7-0.4l2.4-3.6c0.3-0.5,0.2-1.1-0.3-1.4C8.1,16.6,7.5,16.7,7.2,17.2z"/></g></g></svg>